<?xml version="1.0" encoding="utf-8"?>
<!-- Generator: Adobe Illustrator 21.1.0, SVG Export Plug-In . SVG Version: 6.00 Build 0)  -->
<svg version="1.1" id="Layer_1" xmlns="http://www.w3.org/2000/svg" xmlns:xlink="http://www.w3.org/1999/xlink" x="0px" y="0px"
	 viewBox="0 0 16 16" style="enable-background:new 0 0 16 16;" xml:space="preserve">
<style type="text/css">
	.st0{fill:#FFFFFF;}
	.st1{fill:#CD3D00;}
	.st2{fill:#E9AD28;}
	.st3{fill:#002E66;}
	.st4{fill:none;}
</style>
<title>logo1</title>
<g id="Layer_2">
	<rect class="st0" width="16" height="16"/>
	<g id="Landing_Page">
		<g id="HEADER">
			<g id="LOGO">
				<path class="st1" d="M16,14c-0.4,0.9-1.1,1.5-2,2h2V14z"/>
				<path class="st1" d="M16,10.4V3.8C16,1.7,14.3,0,12.2,0l0,0v8C13.8,8,15.3,8.9,16,10.4z"/>
				<path class="st2" d="M3.8,0H0v12.2C0,14.3,1.7,16,3.8,16l0,0V0z"/>
				<path class="st3" d="M8,3.8C8,6.1,6.1,8,3.8,8C6.1,8,8,9.9,8,12.2c0,1.6-0.9,3.1-2.4,3.8h6.6V8C9.9,8,8,6.1,8,3.8z"/>
				<path class="st3" d="M8,3.8C8,2.2,8.9,0.7,10.4,0H5.6C7.1,0.7,8,2.2,8,3.8z"/>
				<path class="st4" d="M8,3.8C8,2.2,7.1,0.7,5.6,0H3.8v8C6.1,8,8,6.1,8,3.8z"/>
				<path class="st4" d="M8,12.2C8,9.9,6.1,8,3.8,8v8h1.8C7.1,15.3,8,13.8,8,12.2z"/>
				<path class="st4" d="M16,14v-3.7C15.3,8.9,13.8,8,12.2,8v8H14C14.9,15.6,15.6,14.9,16,14z"/>
				<path class="st4" d="M8,3.8C8,6.1,9.9,8,12.2,8l0,0V0h-1.8C8.9,0.7,8,2.2,8,3.8z"/>
			</g>
		</g>
	</g>
</g>
</svg>
