<svg xmlns="http://www.w3.org/2000/svg" viewBox="0 0 30 30"><defs><style>.cls-1{fill:#fff;}</style></defs><title>Asset 2</title><g id="Layer_2" data-name="Layer 2"><g id="Layer_2-2" data-name="Layer 2"><path class="cls-1" d="M0,0H7.5a0,0,0,0,1,0,0V30a0,0,0,0,1,0,0h0A7.5,7.5,0,0,1,0,22.5V0A0,0,0,0,1,0,0Z"/><path class="cls-1" d="M20.31,0H9.69A7.69,7.69,0,0,1,15,7.31,7.69,7.69,0,0,1,20.31,0Z"/><path class="cls-1" d="M15,7.31A7.69,7.69,0,0,1,7.5,15h0A7.69,7.69,0,0,1,9.69,30H22.5V15A7.69,7.69,0,0,1,15,7.31Z"/><path class="cls-1" d="M22.69,15A7.69,7.69,0,0,1,30,20.31V7.5A7.5,7.5,0,0,0,22.5,0h0V15Z"/><path class="cls-1" d="M25.06,30H30V25.06A7.7,7.7,0,0,1,25.06,30Z"/></g></g></svg>