<svg xmlns="http://www.w3.org/2000/svg" viewBox="0 0 174.4 29.51"><defs><style>.cls-1{fill:#333;}.cls-2{fill:#cd3d00;}.cls-3{fill:#e9ad28;}.cls-4{fill:#002e66;}.cls-5{fill:none;}</style></defs><title>logo</title><g id="Layer_2" data-name="Layer 2"><g id="Landing_Page" data-name="Landing Page"><g id="HEADER"><g id="LOGO"><path class="cls-1" d="M48.2,18.22a3.4,3.4,0,0,1-.32,1.48A3.74,3.74,0,0,1,47,20.88a3.92,3.92,0,0,1-1.27.77,4.39,4.39,0,0,1-1.56.27H37.41V7.57h6.91a2.83,2.83,0,0,1,1.35.32,3.38,3.38,0,0,1,1,.84,3.84,3.84,0,0,1,.66,1.17,4,4,0,0,1,.23,1.32,3.76,3.76,0,0,1-.55,2,3.37,3.37,0,0,1-1.51,1.34,3.59,3.59,0,0,1,1.95,1.35A3.82,3.82,0,0,1,48.2,18.22ZM38.83,8.81V14.1h4.93a2.2,2.2,0,0,0,1-.22,2.49,2.49,0,0,0,.78-.59,2.71,2.71,0,0,0,.5-.84,2.77,2.77,0,0,0,.18-1,3.07,3.07,0,0,0-.17-1,2.52,2.52,0,0,0-.48-.84A2.43,2.43,0,0,0,44.8,9a2,2,0,0,0-.93-.21Zm8,9.17a2.94,2.94,0,0,0-.18-1,2.65,2.65,0,0,0-1.3-1.47,2.12,2.12,0,0,0-1-.23H38.83v5.43h5.35a2.37,2.37,0,0,0,1-.22,2.71,2.71,0,0,0,.83-.6,2.78,2.78,0,0,0,.56-.87A2.68,2.68,0,0,0,46.78,18Z"/><path class="cls-1" d="M55.69,22a5.55,5.55,0,0,1-4.11-1.74,5.85,5.85,0,0,1-1.15-1.8A5.43,5.43,0,0,1,50,16.36a5.34,5.34,0,0,1,.43-2.11,5.7,5.7,0,0,1,1.19-1.79,5.85,5.85,0,0,1,1.8-1.23,5.46,5.46,0,0,1,2.25-.46,5.41,5.41,0,0,1,2.31.48,5.73,5.73,0,0,1,2.94,3.09,5.46,5.46,0,0,1,.4,2,5.31,5.31,0,0,1-.43,2.12,5.85,5.85,0,0,1-1.19,1.79,5.65,5.65,0,0,1-1.79,1.23A5.49,5.49,0,0,1,55.69,22Zm-4.4-5.62A4.47,4.47,0,0,0,51.61,18a4.52,4.52,0,0,0,.9,1.42,4.39,4.39,0,0,0,1.38,1,4.5,4.5,0,0,0,3.62,0,4.37,4.37,0,0,0,1.38-1,4.54,4.54,0,0,0,.86-4.74,4.41,4.41,0,0,0-2.29-2.4,4.49,4.49,0,0,0-3.59,0,4.37,4.37,0,0,0-1.38,1,4.65,4.65,0,0,0-.89,1.43A4.36,4.36,0,0,0,51.29,16.36Z"/><path class="cls-1" d="M72.24,19.08A2.46,2.46,0,0,1,72,20.23a2.79,2.79,0,0,1-.74.9,3.55,3.55,0,0,1-1.08.59,4,4,0,0,1-1.32.21H63.17V10.86H69a2.58,2.58,0,0,1,1.13.24,2.54,2.54,0,0,1,.85.65,3.09,3.09,0,0,1,.54.91,2.88,2.88,0,0,1,.19,1,2.77,2.77,0,0,1-.44,1.54,2.71,2.71,0,0,1-1.25,1,3,3,0,0,1,1.63,1A2.81,2.81,0,0,1,72.24,19.08ZM64.42,12v3.84h4.06a2.11,2.11,0,0,0,.8-.15,1.89,1.89,0,0,0,.64-.41,2,2,0,0,0,.41-.62,1.85,1.85,0,0,0,.15-.74A1.9,1.9,0,0,0,70,12.53,1.82,1.82,0,0,0,68.58,12ZM71,18.86a1.93,1.93,0,0,0-.15-.75,2.07,2.07,0,0,0-.42-.65,2,2,0,0,0-1.44-.61H64.42v4h4.4a2.19,2.19,0,0,0,.84-.16,2.12,2.12,0,0,0,.68-.43,2.15,2.15,0,0,0,.45-.64A1.73,1.73,0,0,0,71,18.86Z"/><path class="cls-1" d="M83.12,19.07a2.46,2.46,0,0,1-.27,1.15,2.79,2.79,0,0,1-.74.9A3.55,3.55,0,0,1,81,21.7a4,4,0,0,1-1.32.21H74.05V10.85h5.84a2.58,2.58,0,0,1,1.13.24,2.54,2.54,0,0,1,.85.65,3.09,3.09,0,0,1,.54.91,2.88,2.88,0,0,1,.19,1,2.77,2.77,0,0,1-.44,1.54,2.71,2.71,0,0,1-1.25,1,3,3,0,0,1,1.63,1A2.81,2.81,0,0,1,83.12,19.07ZM75.3,12v3.84h4.06a2.11,2.11,0,0,0,.8-.15,1.89,1.89,0,0,0,.64-.41,2,2,0,0,0,.41-.62,1.85,1.85,0,0,0,.15-.74,1.9,1.9,0,0,0-.53-1.37A1.82,1.82,0,0,0,79.46,12Zm6.54,6.87a1.93,1.93,0,0,0-.15-.75,2.07,2.07,0,0,0-.42-.65,2,2,0,0,0-1.44-.61H75.3v4h4.4a2.19,2.19,0,0,0,.84-.16,2.12,2.12,0,0,0,.68-.43,2.15,2.15,0,0,0,.45-.64A1.73,1.73,0,0,0,81.85,18.85Z"/><path class="cls-1" d="M86.31,10.85l3.9,5.86,3.92-5.86h1.39l-4.69,7v4.08H89.56v-4.1l-4.63-7Z"/><path class="cls-1" d="M108,10.26a4.37,4.37,0,0,0-1.62-1.11,5.9,5.9,0,0,0-2.3-.42,4.33,4.33,0,0,0-2.77.72,2.39,2.39,0,0,0-.87,1.95,2.15,2.15,0,0,0,.23,1.06,2,2,0,0,0,.72.72,5,5,0,0,0,1.24.53q.76.22,1.79.44a19.45,19.45,0,0,1,2.07.55,6,6,0,0,1,1.57.76,3.15,3.15,0,0,1,1,1.1,3.42,3.42,0,0,1,.34,1.62,3.63,3.63,0,0,1-.38,1.72,3.43,3.43,0,0,1-1.07,1.21,4.77,4.77,0,0,1-1.64.72,8.76,8.76,0,0,1-2.08.23A8.55,8.55,0,0,1,98.46,20l.71-1.15a5.58,5.58,0,0,0,.92.77,6.65,6.65,0,0,0,1.19.64,7.56,7.56,0,0,0,1.4.42,7.91,7.91,0,0,0,1.58.15,4.93,4.93,0,0,0,2.68-.62,2.07,2.07,0,0,0,1-1.87,2.15,2.15,0,0,0-.27-1.12,2.36,2.36,0,0,0-.82-.79,5.8,5.8,0,0,0-1.35-.58q-.81-.24-1.88-.48t-2-.55a5.27,5.27,0,0,1-1.43-.71,2.75,2.75,0,0,1-.88-1A3.3,3.3,0,0,1,99,11.59a4,4,0,0,1,.37-1.77,3.47,3.47,0,0,1,1.06-1.29A5,5,0,0,1,102,7.75a7.3,7.3,0,0,1,2.06-.27,7,7,0,0,1,2.56.43,6.87,6.87,0,0,1,2,1.22Z"/><path class="cls-1" d="M111.2,21.92V10.85h5a3.47,3.47,0,0,1,1.45.3,3.71,3.71,0,0,1,1.9,1.94,3.27,3.27,0,0,1,.26,1.27,3.56,3.56,0,0,1-.25,1.32,3.65,3.65,0,0,1-.71,1.13,3.35,3.35,0,0,1-1.1.79,3.44,3.44,0,0,1-1.43.29h-3.86v4Zm1.25-5.15h3.8a2.27,2.27,0,0,0,.95-.19,2.15,2.15,0,0,0,.72-.52,2.3,2.3,0,0,0,.45-.77,2.7,2.7,0,0,0,.16-.93,2.25,2.25,0,0,0-.19-.92,2.48,2.48,0,0,0-.52-.76,2.45,2.45,0,0,0-.77-.52,2.32,2.32,0,0,0-.93-.19h-3.68Z"/><path class="cls-1" d="M129.76,20.78v1.13h-8.14V10.85h8V12h-6.73v3.78h5.88v1.05h-5.88v4Z"/><path class="cls-1" d="M132.66,13.21v8.71h-1.25V10.85h1l7.88,8.87V10.87h1.27v11h-1.09Z"/><path class="cls-1" d="M143.34,16.3a5.44,5.44,0,0,1,.38-2,5.57,5.57,0,0,1,1.11-1.78,5.5,5.5,0,0,1,1.8-1.27,5.87,5.87,0,0,1,2.44-.48,5.32,5.32,0,0,1,2.76.68,4.43,4.43,0,0,1,1.71,1.75l-1,.65a3.17,3.17,0,0,0-.69-.91,3.92,3.92,0,0,0-.87-.6,3.59,3.59,0,0,0-1-.32,5.58,5.58,0,0,0-1-.09,4.37,4.37,0,0,0-1.9.39,4.23,4.23,0,0,0-2.22,2.43,4.68,4.68,0,0,0-.28,1.6,4.48,4.48,0,0,0,.33,1.71,4.58,4.58,0,0,0,.93,1.44,4.39,4.39,0,0,0,1.41,1,4.3,4.3,0,0,0,1.77.36,5,5,0,0,0,1-.11,4.36,4.36,0,0,0,1-.35,3.77,3.77,0,0,0,.91-.63,3.47,3.47,0,0,0,.7-.91l1.07.59a3.78,3.78,0,0,1-.83,1.09,5,5,0,0,1-1.18.81,6.5,6.5,0,0,1-1.38.49A6.16,6.16,0,0,1,149,22a5.2,5.2,0,0,1-2.28-.49,5.83,5.83,0,0,1-1.78-1.3,6,6,0,0,1-1.16-1.83A5.51,5.51,0,0,1,143.34,16.3Z"/><path class="cls-1" d="M163.74,20.78v1.13H155.6V10.85h8V12h-6.73v3.78h5.88v1.05h-5.88v4Z"/><path class="cls-1" d="M165.39,21.92V10.85h5.11a3.47,3.47,0,0,1,1.45.3,3.58,3.58,0,0,1,1.14.81,3.94,3.94,0,0,1,.75,1.13,3.16,3.16,0,0,1,.27,1.27,3.38,3.38,0,0,1-.19,1.13,3.25,3.25,0,0,1-.55,1,3.55,3.55,0,0,1-.84.75,3.11,3.11,0,0,1-1.09.43l2.95,4.26h-1.45l-2.79-4h-3.51v4Zm1.25-5.15h3.9a2.22,2.22,0,0,0,.93-.19,2.19,2.19,0,0,0,.73-.53,2.35,2.35,0,0,0,.46-.77,2.62,2.62,0,0,0,.16-.92,2.18,2.18,0,0,0-.19-.91,2.65,2.65,0,0,0-.52-.76,2.39,2.39,0,0,0-.76-.53,2.3,2.3,0,0,0-.94-.19h-3.78Z"/><path class="cls-2" d="M29.51,25.91a7.8,7.8,0,0,1-3.6,3.6h3.6Z"/><path class="cls-2" d="M29.51,19.13V7a7,7,0,0,0-7-7h0V14.76A7.77,7.77,0,0,1,29.51,19.13Z"/><path class="cls-3" d="M7,0H0V22.52a7,7,0,0,0,7,7H7V0Z"/><path class="cls-4" d="M14.76,7A7.77,7.77,0,0,1,7,14.76a7.77,7.77,0,0,1,3.39,14.76H22.52V14.76A7.77,7.77,0,0,1,14.76,7Z"/><path class="cls-4" d="M14.76,7a7.77,7.77,0,0,1,4.38-7H10.38A7.77,7.77,0,0,1,14.76,7Z"/><path class="cls-5" d="M14.76,7a7.77,7.77,0,0,0-4.38-7H7V14.76A7.77,7.77,0,0,0,14.76,7Z"/><path class="cls-5" d="M14.76,22.52A7.77,7.77,0,0,0,7,14.76V29.51h3.39A7.77,7.77,0,0,0,14.76,22.52Z"/><path class="cls-5" d="M29.51,25.91V19.13a7.77,7.77,0,0,0-7-4.38V29.51h3.39A7.8,7.8,0,0,0,29.51,25.91Z"/><path class="cls-5" d="M14.76,7a7.77,7.77,0,0,0,7.77,7.77V0H19.13A7.77,7.77,0,0,0,14.76,7Z"/></g></g></g></g></svg>