<svg xmlns="http://www.w3.org/2000/svg" viewBox="0 0 29.51 29.51"><defs><style>.cls-1{fill:#cd3d00;}.cls-2{fill:#e9ad28;}.cls-3{fill:#002e66;}.cls-4{fill:none;}</style></defs><title>logo1</title><g id="Layer_2" data-name="Layer 2"><g id="Landing_Page" data-name="Landing Page"><g id="HEADER"><g id="LOGO"><path class="cls-1" d="M29.51,25.91a7.8,7.8,0,0,1-3.6,3.6h3.6Z"/><path class="cls-1" d="M29.51,19.13V7a7,7,0,0,0-7-7h0V14.76A7.77,7.77,0,0,1,29.51,19.13Z"/><path class="cls-2" d="M7,0H0V22.52a7,7,0,0,0,7,7H7V0Z"/><path class="cls-3" d="M14.76,7A7.77,7.77,0,0,1,7,14.76a7.77,7.77,0,0,1,3.39,14.76H22.52V14.76A7.77,7.77,0,0,1,14.76,7Z"/><path class="cls-3" d="M14.76,7a7.77,7.77,0,0,1,4.38-7H10.38A7.77,7.77,0,0,1,14.76,7Z"/><path class="cls-4" d="M14.76,7a7.77,7.77,0,0,0-4.38-7H7V14.76A7.77,7.77,0,0,0,14.76,7Z"/><path class="cls-4" d="M14.76,22.52A7.77,7.77,0,0,0,7,14.76V29.51h3.39A7.77,7.77,0,0,0,14.76,22.52Z"/><path class="cls-4" d="M29.51,25.91V19.13a7.77,7.77,0,0,0-7-4.38V29.51h3.39A7.8,7.8,0,0,0,29.51,25.91Z"/><path class="cls-4" d="M14.76,7a7.77,7.77,0,0,0,7.77,7.77V0H19.13A7.77,7.77,0,0,0,14.76,7Z"/></g></g></g></g></svg>