<svg xmlns="http://www.w3.org/2000/svg" viewBox="0 0 1280 500.58"><defs><style>.cls-1{fill:#002e66;}.cls-2{fill:#cd3d00;}.cls-3{fill:#f5f3eb;}</style></defs><title>Asset 8</title><g id="Layer_2" data-name="Layer 2"><g id="Landing_Page" data-name="Landing Page"><g id="CONTACT"><rect class="cls-1" width="1280" height="500"/><g id="SKYLINE"><path class="cls-2" d="M1215.43,392.37h-28.26v32.88h-105.7V357.77H1048.6v58.31L1027.23,400V376.8h-9.65v22.15h-9.19V379h-7.81v20.59h-8.73V379h-8.73v21.8H966.8L962,397.22l-8.27-.35V346L917.4,357.77v18H876v21.8H865.92V370.22H854.44l-14.25-8-18.84,7.61h-9.19v59.87H736.33v-72l-17.92-8.31-18.84,8v55.71h-28v16.61H645.79V407.6H625.57v-22h-23.9V379h-7.81c-18.84-11.59-31.71,0-31.71,0h-7.35v12.28H541v-10l-18.38,10.38-19.3-.35V376.8l-18.38-4.5-22.52,4.5v17.65H440.36V360.88H340.63V372H325.93V360.88H299.27v12.46H288.7v30.8H270.32V369.88L257,346,245,373v48.1H210.11V410h-6.89V391.68L189,384.76,175.65,391v34.26L86,388.91H54.78v6.58H24.22L0,396.49V498.87H1280V392.37Z"/><path id="SKYLINE_LUX" data-name="SKYLINE LUX" class="cls-3" d="M0,441v59.59H1280V433.81l-19-2.05-21.65-15.1h-19.81v7.55h-24.95v-27.4h-8.81l-11.74-10.62-8.81,9.78h-9.54v11.74H1144V363.55s-14.31-5.87-29.72,0v34.11l-15,26v18.17h-27.88v5.87h-26.42v-59l-33.75-9.78-32.29,10.34v17.61H968.61L949.9,393.46l-16.14,12v10.34h-18V363.27l-4-4.75v-12.3L915,342l.37-5.59L901.84,304l-11.37,33v5.31l2.94,2.8-.37,12s-3.3,6.71-4.4,6.71H821.12l-8.44-21.53-8.44,28.52v24.32H774.53V403H510.37v-9.23H504.5v-15.1H468.91v23.76h-22V389.27H395.16v35.78H344.9V390.67H329.49v-5.31H295v3.35H276.66v39.7h-6.6V453H248.77V408.56l-10.64,10.9H162.19V403l-2.57-19-4.4,19.57s-5.5-6.15,0-22.37c0,0-8.07-35.23-8.44-59.27,0,0-3.67,53.4-7.34,59,0,0,4,10.9,0,20.41l-2.57-3.91-9.17-73.81L118.89,401l-7,6.43-15-15.1s5.5-3.91,0-8.67L93.21,342l-2.57,41.1s-5.87,5.87,0,9.51L75.23,408.28h-40l-26,19.85V441Zm550-27-.06,16.68-13.45,10.53.06-26.7s1.07-3.91,6.67-4.17S550,414,550,414Zm20.3,0-.1,5.52-13.41,7.83.06-12.84s1.07-3.91,6.67-4.17S570.29,414,570.29,414Zm154.39,13.35-13.41-7.83-.1-5.52s1.19-3.91,6.79-3.66,6.67,4.17,6.67,4.17ZM745,441.22l-13.45-10.53L731.47,414s1.19-3.91,6.79-3.66,6.67,4.17,6.67,4.17Zm8.75,0H752V414s1.19-3.91,6.79-3.66,6.67,4.17,6.67,4.17v26.65Zm-222.83,20.5c13.21-22.4,38.16-34.29,38.16-34.29s33.75-20.5,95.39-14.54,82.67,45.1,84.63,45.1l2.94,3.73ZM516,414.52s1.07-3.91,6.67-4.17,6.79,3.66,6.79,3.66v27.16H516Z"/></g></g></g></g></svg>